<svg width="222" height="62" viewBox="0 0 222 62" fill="none" xmlns="http://www.w3.org/2000/svg">
<path d="M221.214 15.5998L217.609 16.6172C217.382 16.018 217.048 15.4359 216.606 14.8707C216.175 14.2942 215.585 13.8194 214.837 13.4463C214.089 13.0733 213.131 12.8868 211.963 12.8868C210.364 12.8868 209.032 13.2542 207.966 13.9889C206.912 14.7124 206.385 15.6337 206.385 16.7528C206.385 17.7476 206.747 18.5332 207.473 19.1097C208.199 19.6862 209.332 20.1667 210.874 20.551L214.752 21.5005C217.088 22.0657 218.828 22.9305 219.973 24.0948C221.118 25.2479 221.691 26.7343 221.691 28.5543C221.691 30.0465 221.26 31.3803 220.398 32.556C219.548 33.7316 218.357 34.6585 216.827 35.3368C215.296 36.015 213.516 36.3542 211.487 36.3542C208.822 36.3542 206.617 35.7776 204.871 34.6246C203.125 33.4716 202.02 31.7873 201.555 29.5717L205.364 28.6221C205.727 30.0238 206.413 31.0751 207.422 31.776C208.442 32.4768 209.775 32.8273 211.419 32.8273C213.289 32.8273 214.775 32.4316 215.874 31.6403C216.985 30.8377 217.541 29.8769 217.541 28.7578C217.541 27.8535 217.224 27.0961 216.589 26.4857C215.954 25.8639 214.979 25.4005 213.663 25.0952L209.31 24.0779C206.917 23.5127 205.16 22.6366 204.038 21.4497C202.927 20.2514 202.371 18.7536 202.371 16.9563C202.371 15.4867 202.785 14.1868 203.613 13.0564C204.452 11.9259 205.591 11.0386 207.031 10.3942C208.482 9.7499 210.126 9.42773 211.963 9.42773C214.548 9.42773 216.577 9.99294 218.051 11.1234C219.536 12.2538 220.591 13.7459 221.214 15.5998Z" fill="#FFAB3E"/>
<path d="M191.347 25.1638V9.76758H195.361V35.8123H191.347V31.4037H191.075C190.463 32.7263 189.511 33.851 188.218 34.778C186.926 35.6936 185.293 36.1514 183.32 36.1514C181.687 36.1514 180.236 35.7953 178.966 35.0832C177.697 34.3597 176.699 33.2745 175.973 31.8276C175.248 30.3693 174.885 28.5324 174.885 26.3168V9.76758H178.898V26.0455C178.898 27.9446 179.431 29.4594 180.497 30.5898C181.574 31.7202 182.946 32.2854 184.613 32.2854C185.61 32.2854 186.625 32.0311 187.657 31.5224C188.7 31.0137 189.573 30.2337 190.276 29.1824C190.99 28.1311 191.347 26.7916 191.347 25.1638Z" fill="#FFAB3E"/>
<path d="M156.921 36.3542C154.562 36.3542 152.493 35.7946 150.713 34.6755C148.945 33.5564 147.561 31.9908 146.564 29.9786C145.577 27.9665 145.084 25.6152 145.084 22.9249C145.084 20.2119 145.577 17.8437 146.564 15.8202C147.561 13.7968 148.945 12.2255 150.713 11.1064C152.493 9.98729 154.562 9.42773 156.921 9.42773C159.279 9.42773 161.342 9.98729 163.111 11.1064C164.891 12.2255 166.274 13.7968 167.261 15.8202C168.259 17.8437 168.757 20.2119 168.757 22.9249C168.757 25.6152 168.259 27.9665 167.261 29.9786C166.274 31.9908 164.891 33.5564 163.111 34.6755C161.342 35.7946 159.279 36.3542 156.921 36.3542ZM156.921 32.7594C158.712 32.7594 160.186 32.3016 161.342 31.386C162.499 30.4704 163.355 29.2665 163.91 27.7743C164.466 26.2822 164.744 24.6657 164.744 22.9249C164.744 21.184 164.466 19.5619 163.91 18.0584C163.355 16.555 162.499 15.3398 161.342 14.4128C160.186 13.4859 158.712 13.0224 156.921 13.0224C155.129 13.0224 153.655 13.4859 152.499 14.4128C151.342 15.3398 150.486 16.555 149.931 18.0584C149.375 19.5619 149.098 21.184 149.098 22.9249C149.098 24.6657 149.375 26.2822 149.931 27.7743C150.486 29.2665 151.342 30.4704 152.499 31.386C153.655 32.3016 155.129 32.7594 156.921 32.7594Z" fill="#FFAB3E"/>
<path d="M134.943 35.8115V9.76676H138.957V35.8115H134.943ZM136.984 5.42598C136.202 5.42598 135.527 5.16033 134.96 4.62904C134.405 4.09774 134.127 3.45906 134.127 2.71299C134.127 1.96692 134.405 1.32823 134.96 0.79694C135.527 0.265647 136.202 0 136.984 0C137.766 0 138.435 0.265647 138.991 0.79694C139.558 1.32823 139.841 1.96692 139.841 2.71299C139.841 3.45906 139.558 4.09774 138.991 4.62904C138.435 5.16033 137.766 5.42598 136.984 5.42598Z" fill="#FFAB3E"/>
<path d="M128.906 9.76722V13.1585H115.369V9.76722H128.906ZM119.315 3.52734H123.328V28.3512C123.328 29.4816 123.493 30.3294 123.821 30.8946C124.162 31.4485 124.592 31.8216 125.114 32.0137C125.647 32.1946 126.208 32.285 126.798 32.285C127.24 32.285 127.603 32.2624 127.886 32.2172C128.17 32.1607 128.396 32.1155 128.566 32.0816L129.383 35.6763C129.111 35.778 128.731 35.8797 128.243 35.9815C127.756 36.0945 127.138 36.151 126.39 36.151C125.256 36.151 124.145 35.908 123.056 35.4219C121.979 34.9359 121.083 34.1954 120.369 33.2007C119.666 32.2059 119.315 30.9511 119.315 29.4364V3.52734Z" fill="#FFAB3E"/>
<path d="M106.182 35.8115V9.76676H110.195V35.8115H106.182ZM108.222 5.42598C107.44 5.42598 106.765 5.16033 106.199 4.62904C105.643 4.09774 105.365 3.45906 105.365 2.71299C105.365 1.96692 105.643 1.32823 106.199 0.79694C106.765 0.265647 107.44 0 108.222 0C109.005 0 109.674 0.265647 110.229 0.79694C110.796 1.32823 111.08 1.96692 111.08 2.71299C111.08 3.45906 110.796 4.09774 110.229 4.62904C109.674 5.16033 109.005 5.42598 108.222 5.42598Z" fill="#FFAB3E"/>
<path d="M76.9805 35.8122V1.08594H80.9941V13.9048H81.3342C81.629 13.4527 82.0371 12.8761 82.5587 12.1753C83.0916 11.4631 83.8512 10.8301 84.8376 10.2762C85.8353 9.71099 87.1845 9.42838 88.8852 9.42838C91.0847 9.42838 93.0235 9.97663 94.7015 11.0731C96.3795 12.1696 97.689 13.7239 98.6301 15.7361C99.5711 17.7482 100.042 20.1221 100.042 22.8577C100.042 25.6159 99.5711 28.0067 98.6301 30.0301C97.689 32.0423 96.3852 33.6022 94.7185 34.7101C93.0518 35.8066 91.1301 36.3548 88.9532 36.3548C87.2752 36.3548 85.9317 36.0779 84.9226 35.524C83.9136 34.9587 83.1369 34.3201 82.5927 33.6079C82.0485 32.8844 81.629 32.2853 81.3342 31.8105H80.858V35.8122H76.9805ZM80.926 22.7899C80.926 24.7568 81.2152 26.492 81.7934 27.9954C82.3716 29.4875 83.2163 30.6575 84.3274 31.5053C85.4385 32.3418 86.799 32.7601 88.409 32.7601C90.087 32.7601 91.4872 32.3192 92.6097 31.4375C93.7434 30.5445 94.5938 29.3462 95.1607 27.8428C95.7389 26.328 96.028 24.6437 96.028 22.7899C96.028 20.9586 95.7446 19.3082 95.1777 17.8386C94.6221 16.3578 93.7775 15.1878 92.6437 14.3287C91.5212 13.4583 90.1097 13.0231 88.409 13.0231C86.7763 13.0231 85.4045 13.4357 84.2934 14.2609C83.1823 15.0748 82.3433 16.2165 81.7764 17.686C81.2095 19.1443 80.926 20.8455 80.926 22.7899Z" fill="#FFAB3E"/>
<path d="M34.8125 35.8116V9.76686H38.69V13.8363H39.0302C39.5744 12.4459 40.4531 11.3664 41.6662 10.5977C42.8794 9.81773 44.3363 9.42773 46.0369 9.42773C47.7603 9.42773 49.1945 9.81773 50.3397 10.5977C51.4961 11.3664 52.3975 12.4459 53.0437 13.8363H53.3158C53.9848 12.4912 54.9882 11.4229 56.326 10.6316C57.6639 9.82903 59.2682 9.42773 61.1389 9.42773C63.4745 9.42773 65.3849 10.1568 66.8702 11.6151C68.3555 13.062 69.0981 15.3172 69.0981 18.3806V35.8116H65.0845V18.3806C65.0845 16.4589 64.5573 15.0854 63.5029 14.2602C62.4485 13.435 61.207 13.0224 59.7784 13.0224C57.9417 13.0224 56.5188 13.5763 55.5097 14.6842C54.5006 15.7807 53.9961 17.1711 53.9961 18.8554V35.8116H49.9145V17.9736C49.9145 16.4928 49.4326 15.3002 48.4689 14.3959C47.5052 13.4803 46.2637 13.0224 44.7444 13.0224C43.7014 13.0224 42.7263 13.2994 41.8193 13.8533C40.9236 14.4072 40.198 15.1759 39.6424 16.1593C39.0982 17.1315 38.8261 18.2563 38.8261 19.5336V35.8116H34.8125Z" fill="#FFAB3E"/>
<path d="M4.42175 35.8122H0L12.7891 1.08594H17.1428L29.9319 35.8122H25.5101L15.102 6.57974H14.8299L4.42175 35.8122ZM6.0544 22.2473H23.8775V25.9776H6.0544V22.2473Z" fill="#FFAB3E"/>
<path d="M214.968 57.7806C214.03 57.7806 213.22 57.5741 212.539 57.161C211.863 56.7437 211.341 56.162 210.973 55.4159C210.61 54.6656 210.428 53.7931 210.428 52.7984C210.428 51.8036 210.61 50.9268 210.973 50.1681C211.341 49.4052 211.852 48.8109 212.508 48.3851C213.167 47.9552 213.937 47.7402 214.816 47.7402C215.323 47.7402 215.824 47.8245 216.319 47.9931C216.814 48.1617 217.264 48.4357 217.67 48.8151C218.076 49.1902 218.399 49.6876 218.64 50.3072C218.881 50.9268 219.001 51.6898 219.001 52.596V53.2283H211.493V51.9385H217.479C217.479 51.3905 217.37 50.9016 217.15 50.4716C216.934 50.0417 216.625 49.7024 216.224 49.4537C215.826 49.205 215.357 49.0806 214.816 49.0806C214.22 49.0806 213.704 49.2282 213.269 49.5232C212.838 49.8141 212.506 50.1934 212.273 50.6613C212.041 51.1292 211.924 51.6308 211.924 52.1661V53.026C211.924 53.7594 212.051 54.3811 212.305 54.8911C212.563 55.397 212.92 55.7826 213.377 56.0482C213.833 56.3095 214.364 56.4402 214.968 56.4402C215.361 56.4402 215.717 56.3854 216.034 56.2758C216.355 56.162 216.632 55.9934 216.864 55.77C217.097 55.5424 217.277 55.26 217.403 54.9228L218.849 55.3274C218.697 55.8164 218.441 56.2463 218.082 56.6172C217.723 56.9839 217.279 57.2706 216.75 57.4771C216.222 57.6794 215.628 57.7806 214.968 57.7806Z" fill="#FFAB3E"/>
<path d="M203.933 61.4224C203.21 61.4224 202.589 61.3297 202.069 61.1442C201.549 60.963 201.115 60.7227 200.769 60.4235C200.426 60.1284 200.154 59.8123 199.951 59.4751L201.143 58.6405C201.278 58.8175 201.449 59.0198 201.657 59.2474C201.864 59.4793 202.147 59.6795 202.506 59.8481C202.87 60.0209 203.346 60.1073 203.933 60.1073C204.72 60.1073 205.369 59.9176 205.88 59.5383C206.392 59.1589 206.647 58.5646 206.647 57.7553V55.7826H206.521C206.411 55.9597 206.254 56.1789 206.051 56.4402C205.853 56.6973 205.565 56.927 205.189 57.1294C204.817 57.3275 204.314 57.4265 203.68 57.4265C202.893 57.4265 202.187 57.2411 201.562 56.8701C200.94 56.4992 200.448 55.9597 200.084 55.2515C199.725 54.5434 199.545 53.6835 199.545 52.6719C199.545 51.6771 199.72 50.8109 200.071 50.0733C200.422 49.3314 200.91 48.7582 201.536 48.3535C202.162 47.9447 202.885 47.7402 203.705 47.7402C204.339 47.7402 204.842 47.8456 205.214 48.0564C205.59 48.2629 205.878 48.499 206.077 48.7645C206.28 49.0258 206.436 49.2408 206.546 49.4094H206.698V47.8667H208.144V57.8565C208.144 58.6911 207.954 59.3697 207.573 59.8924C207.197 60.4192 206.69 60.8049 206.051 61.0494C205.417 61.2981 204.711 61.4224 203.933 61.4224ZM203.883 56.0861C204.483 56.0861 204.99 55.9491 205.404 55.6752C205.819 55.4012 206.134 55.0071 206.349 54.4928C206.565 53.9786 206.673 53.3632 206.673 52.6466C206.673 51.9469 206.567 51.3294 206.356 50.7941C206.144 50.2588 205.831 49.8394 205.417 49.5359C205.003 49.2324 204.491 49.0806 203.883 49.0806C203.248 49.0806 202.72 49.2408 202.297 49.5612C201.879 49.8815 201.564 50.3114 201.352 50.851C201.145 51.3905 201.042 51.9891 201.042 52.6466C201.042 53.321 201.147 53.9175 201.359 54.4359C201.574 54.9502 201.891 55.3548 202.31 55.6499C202.733 55.9407 203.257 56.0861 203.883 56.0861Z" fill="#FFAB3E"/>
<path d="M191.051 51.7361V57.5783H189.555V47.8667H191.001V49.3841H191.127C191.356 48.891 191.702 48.4947 192.167 48.1955C192.632 47.892 193.233 47.7402 193.968 47.7402C194.628 47.7402 195.205 47.8751 195.7 48.1449C196.194 48.4104 196.579 48.8151 196.854 49.3588C197.129 49.8984 197.266 50.5812 197.266 51.4074V57.5783H195.769V51.5085C195.769 50.7456 195.571 50.1513 195.173 49.7255C194.776 49.2956 194.23 49.0806 193.537 49.0806C193.059 49.0806 192.632 49.1839 192.256 49.3904C191.884 49.597 191.59 49.8984 191.375 50.2946C191.159 50.6908 191.051 51.1713 191.051 51.7361Z" fill="#FFAB3E"/>
<path d="M182.36 57.8059C181.743 57.8059 181.183 57.69 180.68 57.4581C180.176 57.2221 179.777 56.8828 179.481 56.4402C179.185 55.9934 179.037 55.4539 179.037 54.8216C179.037 54.2652 179.147 53.8142 179.367 53.4686C179.587 53.1187 179.881 52.8447 180.248 52.6466C180.616 52.4485 181.022 52.301 181.466 52.204C181.914 52.1029 182.364 52.0228 182.817 51.9638C183.409 51.8879 183.888 51.831 184.256 51.7931C184.628 51.7509 184.899 51.6814 185.068 51.5844C185.241 51.4875 185.328 51.3189 185.328 51.0786V51.028C185.328 50.4042 185.157 49.9194 184.814 49.5738C184.476 49.2282 183.962 49.0553 183.273 49.0553C182.559 49.0553 181.999 49.2113 181.593 49.5232C181.187 49.8351 180.902 50.1681 180.737 50.5222L179.316 50.0164C179.57 49.4263 179.908 48.9668 180.331 48.6381C180.758 48.3051 181.223 48.0732 181.726 47.9426C182.233 47.8077 182.732 47.7402 183.222 47.7402C183.535 47.7402 183.895 47.7782 184.301 47.854C184.711 47.9257 185.106 48.0753 185.486 48.3029C185.871 48.5306 186.19 48.8741 186.444 49.3335C186.698 49.793 186.824 50.4084 186.824 51.1798V57.5783H185.328V56.2632H185.252C185.15 56.4739 184.981 56.6994 184.744 56.9397C184.508 57.1799 184.193 57.3844 183.8 57.553C183.406 57.7216 182.927 57.8059 182.36 57.8059ZM182.588 56.4655C183.18 56.4655 183.679 56.3496 184.085 56.1177C184.495 55.8859 184.804 55.5866 185.011 55.2199C185.222 54.8532 185.328 54.4675 185.328 54.0629V52.6972C185.264 52.7731 185.125 52.8426 184.909 52.9058C184.698 52.9648 184.453 53.0175 184.174 53.0639C183.899 53.1061 183.63 53.144 183.368 53.1777C183.11 53.2072 182.901 53.2325 182.741 53.2536C182.352 53.3042 181.988 53.3864 181.65 53.5002C181.316 53.6098 181.045 53.7763 180.838 53.9997C180.635 54.2188 180.534 54.5181 180.534 54.8975C180.534 55.4159 180.726 55.8079 181.111 56.0735C181.5 56.3348 181.992 56.4655 182.588 56.4655Z" fill="#FFAB3E"/>
<path d="M170.44 51.7375V57.5796H168.943V44.6309H170.44V49.3855H170.567C170.795 48.8839 171.138 48.4856 171.594 48.1905C172.055 47.8912 172.668 47.7416 173.433 47.7416C174.097 47.7416 174.678 47.8744 175.177 48.1399C175.676 48.4013 176.063 48.8038 176.338 49.3476C176.617 49.8871 176.756 50.5741 176.756 51.4087V57.5796H175.259V51.5099C175.259 50.7385 175.059 50.1421 174.657 49.7206C174.26 49.2949 173.708 49.082 173.002 49.082C172.512 49.082 172.072 49.1853 171.683 49.3918C171.298 49.5984 170.994 49.8997 170.77 50.2959C170.55 50.6922 170.44 51.1727 170.44 51.7375Z" fill="#FFAB3E"/>
<path d="M162.925 57.7806C162.012 57.7806 161.226 57.5656 160.566 57.1357C159.907 56.7057 159.4 56.1135 159.044 55.359C158.689 54.6045 158.512 53.7425 158.512 52.7731C158.512 51.7867 158.694 50.9163 159.057 50.1618C159.425 49.4031 159.936 48.8109 160.592 48.3851C161.251 47.9552 162.021 47.7402 162.9 47.7402C163.585 47.7402 164.202 47.8667 164.752 48.1196C165.301 48.3725 165.752 48.7266 166.102 49.1818C166.453 49.637 166.671 50.1681 166.756 50.7751H165.259C165.145 50.3325 164.891 49.9405 164.498 49.5991C164.109 49.2535 163.585 49.0806 162.925 49.0806C162.342 49.0806 161.83 49.2324 161.391 49.5359C160.955 49.8351 160.615 50.2588 160.37 50.8067C160.129 51.3505 160.008 51.9891 160.008 52.7225C160.008 53.4728 160.127 54.1261 160.363 54.6825C160.604 55.2389 160.943 55.6709 161.378 55.9786C161.818 56.2863 162.334 56.4402 162.925 56.4402C163.314 56.4402 163.667 56.3728 163.984 56.2379C164.302 56.103 164.57 55.9091 164.79 55.6562C165.01 55.4033 165.166 55.0998 165.259 54.7457H166.756C166.671 55.319 166.462 55.8353 166.128 56.2948C165.798 56.75 165.361 57.1125 164.815 57.3823C164.274 57.6478 163.644 57.7806 162.925 57.7806Z" fill="#FFAB3E"/>
<path d="M148.979 44.6309L152.327 50.0178H152.428L155.777 44.6309H157.628L153.545 51.1052L157.628 57.5796H155.777L152.428 52.2939H152.327L148.979 57.5796H147.127L151.312 51.1052L147.127 44.6309H148.979Z" fill="#FFAB3E"/>
<path d="M138.076 57.5788V56.4407L143.606 49.3593V49.2582H138.254V47.8672H145.534V49.0558L140.156 56.0866V56.1878H145.711V57.5788H138.076Z" fill="#FFAB3E"/>
<path d="M134.117 57.578V47.8665H135.613V57.578H134.117ZM134.878 46.2479C134.586 46.2479 134.335 46.1488 134.123 45.9507C133.916 45.7526 133.812 45.5144 133.812 45.2362C133.812 44.958 133.916 44.7199 134.123 44.5218C134.335 44.3237 134.586 44.2246 134.878 44.2246C135.17 44.2246 135.419 44.3237 135.626 44.5218C135.838 44.7199 135.943 44.958 135.943 45.2362C135.943 45.5144 135.838 45.7526 135.626 45.9507C135.419 46.1488 135.17 46.2479 134.878 46.2479Z" fill="#FFAB3E"/>
<path d="M122.705 57.5796V44.6309H127.246C128.15 44.6309 128.896 44.7868 129.484 45.0987C130.072 45.4064 130.509 45.8216 130.797 46.3443C131.084 46.8628 131.228 47.4381 131.228 48.0704C131.228 48.6268 131.129 49.0862 130.93 49.4487C130.736 49.8112 130.478 50.0978 130.156 50.3086C129.839 50.5194 129.495 50.6753 129.123 50.7765V50.9029C129.52 50.9282 129.92 51.0673 130.321 51.3202C130.723 51.5731 131.059 51.9356 131.33 52.4077C131.6 52.8798 131.735 53.4573 131.735 54.1401C131.735 54.7892 131.587 55.373 131.291 55.8915C130.996 56.4099 130.528 56.8209 129.89 57.1244C129.252 57.4279 128.421 57.5796 127.398 57.5796H122.705ZM124.278 56.1887H127.398C128.425 56.1887 129.154 55.9905 129.586 55.5943C130.021 55.1939 130.239 54.7092 130.239 54.1401C130.239 53.7017 130.127 53.2971 129.903 52.9262C129.679 52.551 129.359 52.2518 128.945 52.0284C128.531 51.8007 128.04 51.6869 127.474 51.6869H124.278V56.1887ZM124.278 50.3212H127.195C127.668 50.3212 128.095 50.2285 128.476 50.043C128.861 49.8576 129.165 49.5962 129.389 49.259C129.617 48.9218 129.731 48.5256 129.731 48.0704C129.731 47.5013 129.533 47.0187 129.135 46.6225C128.738 46.2221 128.108 46.0218 127.246 46.0218H124.278V50.3212Z" fill="#FFAB3E"/>
</svg>
